<svg width="551" height="568" viewBox="0 0 551 568" fill="none" xmlns="http://www.w3.org/2000/svg">
<g clip-path="url(#clip0_1_2)">
<path d="M287.004 567C286.905 567 286.806 566.998 286.707 566.996C284.191 566.876 281.827 565.947 280.107 564.404C278.388 562.86 277.445 560.821 277.476 558.71C277.476 545.867 266.522 538.376 255.667 536.648C244.811 534.922 231.339 538.527 225.717 550.476L220.605 561.223C216.185 564.916 210.197 566.99 203.954 566.99C197.711 566.99 191.722 564.916 187.303 561.223L187 560.971L187.188 560.648L277.476 405.937V402.146C277.351 400.977 277.352 399.801 277.478 398.633L277.476 8.97637C277.476 7.90829 277.732 6.85108 278.229 5.86746C278.726 4.88383 279.454 3.99383 280.37 3.25026C281.285 2.50669 282.37 1.9247 283.559 1.5388C284.748 1.1529 286.018 0.970948 287.292 1.00377C289.809 1.12422 292.173 2.05277 293.892 3.59614C295.612 5.13951 296.554 7.1788 296.524 9.28955V398.678C296.649 399.846 296.648 401.022 296.522 402.191L296.524 405.936L387 560.971L386.697 561.223C382.278 564.916 376.289 566.99 370.046 566.99C363.803 566.99 357.815 564.916 353.395 561.223L353.261 561.053L348.283 550.476C342.661 538.528 329.191 534.925 318.334 536.648C307.478 538.376 296.524 545.867 296.524 558.71V559.024C296.524 561.139 295.521 563.167 293.736 564.663C291.95 566.158 289.529 566.999 287.004 567L287.004 567Z" fill="#E6E6E6"/>
<path d="M530.08 385H52.9211C47.3745 384.995 42.0569 383.197 38.1348 380C34.2127 376.804 32.0064 372.47 32 367.949V96.0513C32.0062 91.5305 34.2123 87.1964 38.1344 83.9998C42.0566 80.8031 47.3744 79.005 52.9211 79H530.08C535.626 79.0052 540.944 80.8034 544.866 84C548.788 87.1966 550.994 91.5307 551 96.0513V367.949C550.994 372.47 548.787 376.804 544.865 380C540.943 383.197 535.626 384.995 530.08 385Z" fill="white"/>
<path d="M527.403 385H48.5976C42.3416 384.994 36.3438 382.949 31.9199 379.312C27.496 375.676 25.0074 370.745 25 365.602V90.3988C25.0072 85.2556 27.4958 80.3248 31.9197 76.6881C36.3436 73.0514 42.3414 71.0058 48.5976 71H527.403C533.659 71.0059 539.657 73.0516 544.081 76.6883C548.504 80.325 550.993 85.2557 551 90.3988V365.602C550.993 370.745 548.504 375.675 544.081 379.312C539.657 382.949 533.659 384.994 527.403 385V385ZM48.5976 75.2816C43.7222 75.286 39.048 76.8801 35.6005 79.7141C32.153 82.5482 30.2137 86.3907 30.2081 90.3988V365.602C30.214 369.61 32.1535 373.452 35.6009 376.286C39.0484 379.12 43.7224 380.714 48.5976 380.718H527.403C532.278 380.714 536.952 379.12 540.4 376.286C543.847 373.452 545.786 369.61 545.792 365.602V90.3988C545.786 86.3908 543.847 82.5483 540.4 79.7142C536.953 76.8801 532.279 75.286 527.403 75.2816H48.5976Z" fill="#F2F2F2"/>
<path d="M335.706 81H238.294C232.118 80.9941 226.197 78.9227 221.83 75.2402C217.463 71.5578 215.007 66.5649 215 61.3571V61H359V61.3571C358.993 66.5649 356.537 71.5578 352.17 75.2402C347.803 78.9227 341.882 80.9941 335.706 81Z" fill="#E6E6E6"/>
<path d="M335.706 400H238.294C232.118 399.994 226.197 397.923 221.83 394.24C217.463 390.558 215.007 385.565 215 380.357V380H359V380.357C358.993 385.565 356.537 390.558 352.17 394.24C347.803 397.923 341.882 399.994 335.706 400V400Z" fill="#E6E6E6"/>
<path d="M437.159 156.414C452.159 156.414 464.319 144.681 464.319 130.207C464.319 115.733 452.159 104 437.159 104C422.16 104 410 115.733 410 130.207C410 144.681 422.16 156.414 437.159 156.414Z" fill="#FF6584"/>
<path d="M397.485 118.261C384.322 116.544 369.295 123.409 365.884 135.795C365.024 133.593 363.461 131.712 361.42 130.423C359.38 129.134 356.967 128.504 354.532 128.624C352.096 128.745 349.763 129.61 347.87 131.094C345.977 132.577 344.622 134.603 344 136.879L345.507 137.92C373.714 143.806 402.913 143.679 431.063 137.547C421.907 128.262 410.648 119.977 397.485 118.261Z" fill="#F0F0F0"/>
<path d="M484.485 130.261C471.322 128.544 456.295 135.409 452.884 147.795C452.024 145.593 450.461 143.712 448.42 142.423C446.38 141.134 443.967 140.504 441.532 140.624C439.096 140.745 436.763 141.61 434.87 143.094C432.977 144.577 431.622 146.603 431 148.879L432.507 149.92C460.714 155.806 489.913 155.679 518.063 149.547C508.907 140.262 497.648 131.977 484.485 130.261Z" fill="#F0F0F0"/>
<path d="M206.992 356.807C223.557 356.807 236.985 343.867 236.985 327.904C236.985 311.941 223.557 299 206.992 299C190.428 299 177 311.941 177 327.904C177 343.867 190.428 356.807 206.992 356.807Z" fill="#6C63FF"/>
<path d="M206.721 380.174L206.965 327.745" stroke="#3F3D56" stroke-width="2" stroke-miterlimit="10"/>
<path d="M206.966 335.159C211.216 335.159 214.66 331.839 214.66 327.745C214.66 323.65 211.216 320.33 206.966 320.33C202.717 320.33 199.273 323.65 199.273 327.745C199.273 331.839 202.717 335.159 206.966 335.159Z" fill="#3F3D56"/>
<path d="M206.815 360.058C206.815 360.058 205.823 337.272 183.279 339.822Z" fill="#3F3D56"/>
<path d="M147.305 235.807C163.87 235.807 177.298 222.867 177.298 206.904C177.298 190.941 163.87 178 147.305 178C130.741 178 117.313 190.941 117.313 206.904C117.313 222.867 130.741 235.807 147.305 235.807Z" fill="#6C63FF"/>
<path d="M147.324 381.892V207.01" stroke="#3F3D56" stroke-width="2" stroke-miterlimit="10"/>
<path d="M147.324 214.341C151.573 214.341 155.018 211.022 155.018 206.927C155.018 202.832 151.573 199.513 147.324 199.513C143.075 199.513 139.63 202.832 139.63 206.927C139.63 211.022 143.075 214.341 147.324 214.341Z" fill="#3F3D56"/>
<path d="M123.694 340.87C127.943 340.87 131.387 337.55 131.387 333.455C131.387 329.361 127.943 326.041 123.694 326.041C119.445 326.041 116 329.361 116 333.455C116 337.55 119.445 340.87 123.694 340.87Z" fill="#3F3D56"/>
<path d="M146.4 272.5C146.4 272.5 145.301 249.719 122.769 252.367Z" fill="#3F3D56"/>
<path d="M147.324 309.382C147.324 309.382 146.225 286.601 123.694 289.249Z" fill="#3F3D56"/>
<path d="M147.324 379.854C147.324 379.854 152.27 335.574 123.694 333.455" stroke="#3F3D56" stroke-width="2" stroke-miterlimit="10"/>
<path d="M171.427 271.32C175.676 271.32 179.12 268.001 179.12 263.906C179.12 259.811 175.676 256.492 171.427 256.492C167.178 256.492 163.733 259.811 163.733 263.906C163.733 268.001 167.178 271.32 171.427 271.32Z" fill="#3F3D56"/>
<path d="M147.796 307.943C147.796 307.943 142.85 266.024 171.427 263.906" stroke="#3F3D56" stroke-width="2" stroke-miterlimit="10"/>
<path d="M48.6936 339.829C52.9427 339.829 56.3873 336.509 56.3873 332.414C56.3873 328.32 52.9427 325 48.6936 325C44.4446 325 41 328.32 41 332.414C41 336.509 44.4446 339.829 48.6936 339.829Z" fill="#3F3D56"/>
<path d="M79.9924 301.807C96.5568 301.807 109.985 288.867 109.985 272.904C109.985 256.941 96.5568 244 79.9924 244C63.4281 244 50 256.941 50 272.904C50 288.867 63.4281 301.807 79.9924 301.807Z" fill="#6C63FF"/>
<path d="M78.2941 379.609L80.0203 272.872" stroke="#3F3D56" stroke-width="2" stroke-miterlimit="10"/>
<path d="M80.0203 280.286C84.2694 280.286 87.7139 276.967 87.7139 272.872C87.7139 268.777 84.2694 265.457 80.0203 265.457C75.7712 265.457 72.3266 268.777 72.3266 272.872C72.3266 276.967 75.7712 280.286 80.0203 280.286Z" fill="#3F3D56"/>
<path d="M79.532 303.063C79.532 303.063 78.8015 280.269 56.23 282.578Z" fill="#3F3D56"/>
<path d="M78.3271 377.571C78.3271 377.571 83.9808 333.842 55.4421 331.295" stroke="#3F3D56" stroke-width="2" stroke-miterlimit="10"/>
</g>
<defs>
<clipPath id="clip0_1_2">
<rect width="550.71" height="567.986" fill="white"/>
</clipPath>
</defs>
</svg>
