<svg width="551" height="568" viewBox="0 0 551 568" fill="none" xmlns="http://www.w3.org/2000/svg">
<g clip-path="url(#clip0_1_2)">
<path d="M104.002 538.323C103.111 538.357 102.229 538.162 101.475 537.765C100.722 537.368 100.133 536.787 99.7887 536.102C99.4445 535.417 99.3617 534.66 99.5514 533.935C99.7411 533.209 100.194 532.55 100.849 532.046C100.959 531.683 101.038 531.422 101.147 531.059C101.108 530.98 101.069 530.901 101.029 530.822C100.131 529.057 98.6269 527.552 96.7049 526.496C94.783 525.441 92.5291 524.881 90.2265 524.888C87.9238 524.895 85.6751 525.469 83.7626 526.536C81.8502 527.604 80.3594 529.118 79.4774 530.889C75.9525 537.956 71.4648 545.035 70.3598 552.507C69.8731 555.81 70.0784 559.158 70.9665 562.402C62.6876 547.369 58.3886 531.03 58.3609 514.492C58.3592 510.342 58.6361 506.195 59.1905 502.071C59.6487 498.69 60.2844 495.333 61.0975 492C65.5349 473.917 75.062 456.967 88.8965 442.544C95.5924 439.503 101.007 434.826 104.412 429.144C105.645 427.101 106.517 424.921 107 422.671C106.245 422.753 105.477 422.805 104.722 422.846C104.486 422.856 104.239 422.866 104.003 422.877L103.915 422.88C103.085 422.911 102.261 422.742 101.544 422.392C100.827 422.043 100.246 421.528 99.8723 420.911C99.4983 420.293 99.3466 419.598 99.4357 418.911C99.5248 418.223 99.8508 417.571 100.374 417.034C100.701 416.7 101.027 416.366 101.353 416.032C101.849 415.517 102.357 415.012 102.852 414.496C102.909 414.448 102.963 414.396 103.013 414.342C103.582 413.754 104.152 413.177 104.722 412.589C103.682 411.246 102.283 410.121 100.635 409.301C94.9269 406.518 87.0515 408.446 82.928 412.744C78.7923 417.042 78.0122 423.073 79.4485 428.443C80.8611 433.012 83.1976 437.349 86.3581 441.266C86.0485 441.596 85.7265 441.915 85.417 442.245C79.758 448.302 74.8259 454.807 70.6912 461.665C71.6967 453.982 70.4966 446.209 67.1897 438.988C63.8381 432.257 57.5561 426.589 52.0241 420.77C45.3792 413.781 31.7532 416.832 30.5826 425.691C30.5712 425.777 30.5602 425.863 30.5494 425.948C31.3711 426.334 32.1754 426.744 32.9624 427.177C33.951 427.727 34.7171 428.513 35.1602 429.431C35.6033 430.35 35.7028 431.358 35.4456 432.324C35.1884 433.291 34.5865 434.17 33.7189 434.847C32.8512 435.523 31.7582 435.966 30.5831 436.117L30.4627 436.132C30.7555 438.598 31.2729 441.041 32.0106 443.441C34.148 450.14 37.9251 456.4 43.1051 461.828C48.2851 467.256 54.7563 471.734 62.1128 474.982C62.5958 475.188 63.0664 475.395 63.5493 475.59C59.3952 485.39 56.7895 495.598 55.7977 505.957C55.2362 512.069 55.2694 518.208 55.8968 524.315L55.8596 524.099C54.2745 517.308 49.9226 511.18 43.5388 506.751C34.0573 500.267 20.6617 497.88 10.4328 492.668C9.34573 492.087 8.08174 491.777 6.78988 491.774C5.49803 491.772 4.2322 492.077 3.14173 492.653C2.05125 493.23 1.18161 494.054 0.635348 495.028C0.0890846 496.003 -0.110997 497.087 0.0586909 498.153C0.0724095 498.229 0.0863397 498.305 0.100508 498.381C1.62533 498.898 3.10997 499.493 4.54583 500.164C5.36753 500.55 6.17186 500.96 6.95884 501.393C7.9475 501.943 8.7136 502.728 9.1567 503.647C9.59981 504.565 9.69926 505.574 9.44207 506.54C9.18489 507.506 8.58304 508.386 7.71537 509.062C6.84771 509.739 5.75471 510.182 4.57957 510.333L4.45915 510.348C4.37245 510.358 4.29818 510.369 4.21163 510.379C6.81699 515.557 10.4737 520.324 15.0216 524.47C20.6398 529.488 27.4301 533.498 34.9763 536.254C42.5224 539.011 50.6653 540.455 58.9057 540.498H58.9182C61.1551 548.59 64.3961 556.466 68.5891 564H103.137C103.261 563.68 103.372 563.351 103.483 563.031C100.286 563.198 97.0752 563.039 93.9239 562.557C96.4872 559.939 99.0503 557.3 101.614 554.682C101.671 554.633 101.724 554.581 101.775 554.527C103.075 553.187 104.387 551.857 105.687 550.517L105.688 550.516C105.757 546.408 105.191 542.31 104.003 538.323L104.002 538.323Z" fill="#F2F2F2"/>
<path d="M287.004 567C286.905 567 286.806 566.998 286.707 566.996C284.191 566.876 281.827 565.947 280.107 564.404C278.388 562.86 277.445 560.821 277.476 558.71C277.476 545.867 266.522 538.376 255.667 536.648C244.811 534.922 231.339 538.527 225.717 550.476L220.605 561.223C216.185 564.916 210.197 566.99 203.954 566.99C197.711 566.99 191.722 564.916 187.303 561.223L187 560.971L187.188 560.648L277.476 405.937V402.146C277.351 400.977 277.352 399.801 277.478 398.633L277.476 8.97637C277.476 7.90829 277.732 6.85108 278.229 5.86746C278.726 4.88383 279.454 3.99383 280.37 3.25026C281.285 2.50669 282.37 1.9247 283.559 1.5388C284.748 1.1529 286.018 0.970948 287.292 1.00377C289.809 1.12422 292.173 2.05277 293.892 3.59614C295.612 5.13951 296.554 7.1788 296.524 9.28955V398.678C296.649 399.846 296.648 401.022 296.522 402.191L296.524 405.936L387 560.971L386.697 561.223C382.278 564.916 376.289 566.99 370.046 566.99C363.803 566.99 357.815 564.916 353.395 561.223L353.261 561.053L348.283 550.476C342.661 538.528 329.191 534.925 318.334 536.648C307.478 538.376 296.524 545.867 296.524 558.71V559.024C296.524 561.139 295.521 563.167 293.736 564.663C291.95 566.158 289.529 566.999 287.004 567L287.004 567Z" fill="#E6E6E6"/>
<path d="M530.08 385H52.9211C47.3745 384.995 42.0569 383.197 38.1348 380C34.2127 376.804 32.0064 372.47 32 367.949V96.0513C32.0062 91.5305 34.2123 87.1964 38.1344 83.9998C42.0566 80.8031 47.3744 79.005 52.9211 79H530.08C535.626 79.0052 540.944 80.8034 544.866 84C548.788 87.1966 550.994 91.5307 551 96.0513V367.949C550.994 372.47 548.787 376.804 544.865 380C540.943 383.197 535.626 384.995 530.08 385Z" fill="white"/>
<path d="M527.403 385H48.5976C42.3416 384.994 36.3438 382.949 31.9199 379.312C27.496 375.676 25.0074 370.745 25 365.602V90.3988C25.0072 85.2556 27.4958 80.3248 31.9197 76.6881C36.3436 73.0514 42.3414 71.0058 48.5976 71H527.403C533.659 71.0059 539.657 73.0516 544.081 76.6883C548.504 80.325 550.993 85.2557 551 90.3988V365.602C550.993 370.745 548.504 375.675 544.081 379.312C539.657 382.949 533.659 384.994 527.403 385V385ZM48.5976 75.2816C43.7222 75.286 39.048 76.8801 35.6005 79.7141C32.153 82.5482 30.2137 86.3907 30.2081 90.3988V365.602C30.214 369.61 32.1535 373.452 35.6009 376.286C39.0484 379.12 43.7224 380.714 48.5976 380.718H527.403C532.278 380.714 536.952 379.12 540.4 376.286C543.847 373.452 545.786 369.61 545.792 365.602V90.3988C545.786 86.3908 543.847 82.5483 540.4 79.7142C536.953 76.8801 532.279 75.286 527.403 75.2816H48.5976Z" fill="#F2F2F2"/>
<path d="M335.706 81H238.294C232.118 80.9941 226.197 78.9227 221.83 75.2402C217.463 71.5578 215.007 66.5649 215 61.3571V61H359V61.3571C358.993 66.5649 356.537 71.5578 352.17 75.2402C347.803 78.9227 341.882 80.9941 335.706 81Z" fill="#E6E6E6"/>
<path d="M335.706 400H238.294C232.118 399.994 226.197 397.923 221.83 394.24C217.463 390.558 215.007 385.565 215 380.357V380H359V380.357C358.993 385.565 356.537 390.558 352.17 394.24C347.803 397.923 341.882 399.994 335.706 400V400Z" fill="#E6E6E6"/>
</g>
<defs>
<clipPath id="clip0_1_2">
<rect width="550.71" height="567.986" fill="white"/>
</clipPath>
</defs>
</svg>
