<svg width="851" height="741" viewBox="0 0 851 741" fill="none" xmlns="http://www.w3.org/2000/svg">
<g id="undraw_developer_activity 1" clip-path="url(#clip0_1_36)">
<path id="Vector" d="M762.878 385.54C762.989 477.209 727.556 565.352 664.028 631.44C660.198 635.45 656.265 639.363 652.228 643.18C646.078 649.03 639.721 654.653 633.158 660.05C571.76 710.634 495.112 739.059 415.578 740.74C412.928 740.8 410.268 740.83 407.598 740.83C344.168 740.83 264.388 706.95 191.988 660.05C185.998 656.17 180.061 652.2 174.178 648.14C171.428 646.26 168.691 644.353 165.968 642.42C138.044 622.702 111.539 601.049 86.648 577.62C70.3509 562.325 55.0684 545.983 40.898 528.7C-14.732 460.08 -27.002 398.25 52.308 385.54C61.698 384.04 70.8113 382.436 79.648 380.73C92.4481 378.27 104.698 375.613 116.398 372.76C132.158 368.93 146.965 364.776 160.818 360.3C165.478 358.8 170.031 357.27 174.478 355.71C240.218 332.62 284.218 302.51 314.168 269.84C319.248 264.31 323.931 258.713 328.218 253.05C334.777 244.429 340.734 235.368 346.048 225.93C353.383 212.816 359.543 199.079 364.458 184.88L364.728 184.1C388.558 115.36 381.308 51.5996 407.598 30.2596C519.978 -60.9704 659.888 68.9496 725.558 222.16C728.868 229.88 731.981 237.646 734.898 245.46C736.208 248.95 737.471 252.446 738.688 255.95C741.888 265.08 744.791 274.233 747.398 283.41C748.398 286.91 749.351 290.406 750.258 293.9C751.228 297.67 752.158 301.43 753.018 305.19C759.408 332.72 762.878 359.87 762.878 385.54Z" fill="#F2F2F2"/>
<path id="Key_w" d="M505.86 218H483.6C482.91 218 482.249 218.274 481.762 218.762C481.274 219.249 481 219.911 481 220.6V242.87C481 243.211 481.068 243.548 481.199 243.863C481.33 244.178 481.521 244.464 481.763 244.704C482.004 244.945 482.291 245.135 482.606 245.265C482.921 245.395 483.259 245.461 483.6 245.46H505.86C506.548 245.46 507.208 245.188 507.695 244.702C508.183 244.217 508.458 243.558 508.46 242.87V220.6C508.458 219.911 508.183 219.251 507.696 218.764C507.209 218.277 506.549 218.002 505.86 218Z" fill="#6C63FF"/>
<path id="Key_r" d="M578.86 218H556.6C555.91 218 555.249 218.274 554.762 218.762C554.274 219.249 554 219.911 554 220.6V242.87C554 243.211 554.068 243.548 554.199 243.863C554.33 244.178 554.521 244.464 554.763 244.704C555.004 244.945 555.291 245.135 555.606 245.265C555.921 245.395 556.259 245.461 556.6 245.46H578.86C579.548 245.46 580.208 245.188 580.695 244.702C581.183 244.217 581.458 243.558 581.46 242.87V220.6C581.458 219.911 581.183 219.251 580.696 218.764C580.209 218.277 579.549 218.002 578.86 218Z" fill="#6C63FF"/>
<path id="Vector_2" d="M427.098 180.05H404.838C404.149 180.05 403.487 180.324 403 180.811C402.512 181.299 402.238 181.96 402.238 182.649V204.919C402.238 205.26 402.306 205.598 402.437 205.913C402.568 206.227 402.759 206.513 403.001 206.754C403.242 206.994 403.529 207.185 403.844 207.315C404.159 207.444 404.497 207.511 404.838 207.51H427.098C427.786 207.51 428.446 207.237 428.933 206.752C429.421 206.266 429.696 205.607 429.698 204.919V182.649C429.696 181.961 429.421 181.3 428.934 180.813C428.447 180.326 427.787 180.052 427.098 180.05V180.05Z" fill="white"/>
<path id="Vector_3" d="M432.781 218H405.219C404.365 218 403.547 218.27 402.943 218.749C402.34 219.228 402 219.879 402 220.556V242.453C402 242.789 402.084 243.12 402.246 243.43C402.408 243.739 402.646 244.02 402.944 244.257C403.243 244.493 403.598 244.681 403.989 244.808C404.379 244.936 404.797 245.001 405.219 245H432.781C433.632 245 434.45 244.732 435.053 244.255C435.657 243.778 435.997 243.13 436 242.453V220.556C435.998 219.879 435.658 219.23 435.054 218.751C434.451 218.272 433.634 218.002 432.781 218Z" fill="#E6E6E6"/>
<path id="Vector_4" d="M427.098 255.95H404.838C404.149 255.95 403.487 256.224 403 256.711C402.512 257.199 402.238 257.86 402.238 258.55V280.81C402.237 281.151 402.304 281.49 402.435 281.805C402.565 282.121 402.757 282.408 402.998 282.65C403.24 282.891 403.526 283.083 403.842 283.213C404.158 283.343 404.496 283.41 404.838 283.409H427.098C427.787 283.409 428.449 283.135 428.936 282.648C429.424 282.16 429.698 281.499 429.698 280.81V258.55C429.696 257.861 429.421 257.2 428.934 256.713C428.447 256.226 427.787 255.952 427.098 255.95V255.95Z" fill="#E6E6E6"/>
<path id="Vector_5" d="M429.658 296.04C429.547 295.441 429.231 294.899 428.763 294.509C428.296 294.118 427.707 293.903 427.098 293.899H404.838C404.149 293.9 403.487 294.174 403 294.661C402.512 295.149 402.238 295.81 402.238 296.5V318.76C402.237 319.101 402.304 319.44 402.435 319.755C402.565 320.071 402.756 320.358 402.998 320.6C403.24 320.841 403.526 321.033 403.842 321.163C404.158 321.293 404.496 321.36 404.838 321.36H427.098C427.787 321.359 428.449 321.085 428.936 320.598C429.424 320.11 429.698 319.449 429.698 318.76V296.5C429.7 296.345 429.687 296.191 429.658 296.04V296.04Z" fill="#E6E6E6"/>
<path id="Vector_6" d="M428.108 332.05C427.788 331.917 427.445 331.849 427.098 331.85H404.838C404.496 331.849 404.158 331.916 403.842 332.046C403.527 332.177 403.24 332.368 402.998 332.61C402.757 332.851 402.565 333.138 402.435 333.454C402.304 333.77 402.238 334.108 402.238 334.45V356.71C402.237 357.051 402.303 357.39 402.433 357.706C402.563 358.022 402.754 358.31 402.996 358.551C403.238 358.793 403.525 358.985 403.841 359.115C404.157 359.245 404.496 359.311 404.838 359.31H427.098C427.788 359.309 428.449 359.035 428.936 358.548C429.424 358.06 429.698 357.399 429.698 356.71V334.45C429.697 333.938 429.546 333.438 429.263 333.011C428.98 332.585 428.579 332.25 428.108 332.05Z" fill="#E6E6E6"/>
<path id="Vector_7" d="M473.858 180.05H451.598C450.909 180.05 450.247 180.324 449.76 180.811C449.272 181.299 448.998 181.96 448.998 182.649V204.919C448.998 205.26 449.066 205.598 449.197 205.913C449.328 206.227 449.519 206.513 449.761 206.754C450.002 206.994 450.289 207.185 450.604 207.315C450.919 207.444 451.257 207.511 451.598 207.51H473.858C474.546 207.51 475.206 207.237 475.693 206.752C476.181 206.266 476.456 205.607 476.458 204.919V182.649C476.456 181.961 476.181 181.3 475.694 180.813C475.207 180.326 474.547 180.052 473.858 180.05V180.05Z" fill="#E6E6E6"/>
<path id="Key_q" d="M469.86 218H447.6C446.91 218 446.249 218.274 445.762 218.762C445.274 219.249 445 219.911 445 220.6V242.87C445 243.211 445.068 243.548 445.199 243.863C445.33 244.178 445.521 244.464 445.763 244.704C446.004 244.945 446.291 245.135 446.606 245.265C446.921 245.395 447.259 245.461 447.6 245.46H469.86C470.548 245.46 471.208 245.188 471.695 244.702C472.183 244.217 472.458 243.558 472.46 242.87V220.6C472.458 219.911 472.183 219.251 471.696 218.764C471.209 218.277 470.549 218.002 469.86 218Z" fill="#6C63FF"/>
<path id="Key_a" d="M473.858 255.95H451.598C450.909 255.95 450.247 256.224 449.76 256.711C449.272 257.199 448.998 257.86 448.998 258.55V280.81C448.997 281.151 449.064 281.49 449.195 281.805C449.325 282.121 449.517 282.408 449.758 282.65C450 282.891 450.287 283.083 450.602 283.213C450.918 283.343 451.256 283.41 451.598 283.409H473.858C474.547 283.409 475.209 283.135 475.696 282.648C476.184 282.16 476.458 281.499 476.458 280.81V258.55C476.456 257.861 476.181 257.2 475.694 256.713C475.207 256.226 474.547 255.952 473.858 255.95V255.95Z" fill="#6C63FF"/>
<path id="Vector_8" d="M474.86 293H452.6C452.055 293 451.524 293.173 451.082 293.492C450.64 293.812 450.311 294.262 450.14 294.78C450.047 295.044 450 295.321 450 295.6V317.86C449.999 318.202 450.066 318.54 450.196 318.856C450.327 319.172 450.518 319.458 450.76 319.7C451.001 319.942 451.288 320.133 451.604 320.264C451.92 320.394 452.258 320.461 452.6 320.46H474.86C475.549 320.46 476.21 320.186 476.698 319.698C477.186 319.211 477.46 318.55 477.46 317.86V295.6C477.458 294.911 477.183 294.251 476.696 293.764C476.209 293.277 475.549 293.002 474.86 293V293Z" fill="#6C63FF"/>
<path id="Vector_9" d="M473.858 331.85H451.598C451.256 331.849 450.918 331.916 450.602 332.046C450.287 332.177 450 332.368 449.758 332.61C449.517 332.851 449.325 333.138 449.195 333.454C449.064 333.77 448.997 334.108 448.998 334.45V356.71C448.997 357.051 449.064 357.39 449.195 357.705C449.325 358.021 449.517 358.308 449.758 358.55C450 358.791 450.287 358.983 450.602 359.113C450.918 359.244 451.256 359.31 451.598 359.31H473.858C474.547 359.309 475.209 359.035 475.696 358.548C476.184 358.06 476.458 357.399 476.458 356.71V334.45C476.458 333.76 476.184 333.099 475.696 332.611C475.209 332.124 474.547 331.85 473.858 331.85V331.85Z" fill="#E6E6E6"/>
<path id="Vector_10" d="M520.618 180.05H498.358C497.669 180.05 497.007 180.324 496.52 180.811C496.032 181.299 495.758 181.96 495.758 182.649V204.919C495.758 205.26 495.826 205.598 495.957 205.913C496.088 206.227 496.279 206.513 496.521 206.754C496.762 206.994 497.049 207.185 497.364 207.315C497.679 207.444 498.017 207.511 498.358 207.51H520.618C521.306 207.51 521.966 207.237 522.453 206.752C522.941 206.266 523.216 205.607 523.218 204.919V182.649C523.216 181.961 522.941 181.3 522.454 180.813C521.967 180.326 521.307 180.052 520.618 180.05V180.05Z" fill="#6C63FF"/>
<path id="Key_e" d="M541.86 218H519.6C518.91 218 518.249 218.274 517.762 218.762C517.274 219.249 517 219.911 517 220.6V242.87C517 243.211 517.068 243.548 517.199 243.863C517.33 244.178 517.521 244.464 517.763 244.704C518.004 244.945 518.291 245.135 518.606 245.265C518.921 245.395 519.259 245.461 519.6 245.46H541.86C542.548 245.46 543.208 245.188 543.695 244.702C544.183 244.217 544.458 243.558 544.46 242.87V220.6C544.458 219.911 544.183 219.251 543.696 218.764C543.209 218.277 542.549 218.002 541.86 218Z" fill="#6C63FF"/>
<path id="Key_s" d="M511.86 256H489.6C488.91 256 488.249 256.274 487.762 256.762C487.274 257.25 487 257.911 487 258.6V280.86C486.999 281.202 487.066 281.54 487.197 281.856C487.327 282.172 487.518 282.458 487.76 282.7C488.002 282.942 488.288 283.133 488.604 283.263C488.92 283.394 489.258 283.461 489.6 283.46H511.86C512.549 283.46 513.21 283.186 513.698 282.698C514.186 282.211 514.46 281.55 514.46 280.86V258.6C514.458 257.911 514.183 257.251 513.696 256.764C513.209 256.277 512.549 256.002 511.86 256V256Z" fill="#E6E6E6"/>
<path id="Key_z" d="M511.86 293H489.6C488.91 293 488.249 293.274 487.762 293.762C487.274 294.25 487 294.911 487 295.6V317.86C486.999 318.202 487.066 318.54 487.196 318.856C487.327 319.172 487.518 319.459 487.76 319.7C488.002 319.942 488.288 320.133 488.604 320.264C488.92 320.394 489.258 320.461 489.6 320.46H511.86C512.549 320.46 513.211 320.186 513.698 319.698C514.186 319.211 514.46 318.55 514.46 317.86V295.6C514.458 294.911 514.183 294.251 513.696 293.764C513.209 293.277 512.549 293.002 511.86 293V293Z" fill="#6C63FF"/>
<path id="Vector_11" d="M520.618 331.85H498.358C498.016 331.849 497.678 331.916 497.362 332.046C497.047 332.177 496.76 332.368 496.518 332.61C496.277 332.851 496.085 333.138 495.955 333.454C495.824 333.77 495.757 334.108 495.758 334.45V356.71C495.757 357.051 495.824 357.39 495.955 357.705C496.085 358.021 496.277 358.308 496.518 358.55C496.76 358.791 497.047 358.983 497.362 359.113C497.678 359.244 498.016 359.31 498.358 359.31H520.618C521.308 359.309 521.969 359.035 522.456 358.548C522.944 358.06 523.218 357.399 523.218 356.71V334.45C523.218 333.76 522.944 333.099 522.456 332.611C521.969 332.124 521.307 331.85 520.618 331.85V331.85Z" fill="#6C63FF"/>
<path id="Vector_12" d="M567.378 180.05H545.118C544.429 180.05 543.767 180.324 543.28 180.811C542.792 181.299 542.518 181.96 542.518 182.649V204.919C542.518 205.26 542.586 205.598 542.717 205.913C542.848 206.227 543.039 206.513 543.281 206.754C543.522 206.994 543.809 207.185 544.124 207.315C544.439 207.444 544.777 207.511 545.118 207.51H567.378C568.066 207.51 568.726 207.237 569.213 206.752C569.701 206.266 569.976 205.607 569.978 204.919V182.649C569.976 181.961 569.701 181.3 569.214 180.813C568.727 180.326 568.067 180.052 567.378 180.05V180.05Z" fill="#6C63FF"/>
<path id="Key_t" d="M618.86 217H596.6C595.911 217 595.249 217.274 594.762 217.762C594.274 218.249 594 218.911 594 219.6V241.87C594 242.211 594.068 242.548 594.199 242.863C594.33 243.178 594.521 243.464 594.763 243.704C595.004 243.945 595.291 244.135 595.606 244.265C595.921 244.395 596.259 244.461 596.6 244.46H618.86C619.548 244.46 620.208 244.188 620.695 243.702C621.183 243.217 621.458 242.558 621.46 241.87V219.6C621.458 218.911 621.183 218.251 620.696 217.764C620.209 217.277 619.549 217.002 618.86 217V217Z" fill="white"/>
<path id="Key_d" d="M548.86 257H526.6C525.911 257 525.249 257.274 524.762 257.762C524.274 258.249 524 258.911 524 259.6V281.86C523.999 282.202 524.066 282.54 524.197 282.856C524.327 283.172 524.518 283.458 524.76 283.7C525.002 283.942 525.288 284.133 525.604 284.263C525.92 284.394 526.258 284.461 526.6 284.46H548.86C549.549 284.46 550.211 284.186 550.698 283.698C551.186 283.211 551.46 282.55 551.46 281.86V259.6C551.458 258.911 551.183 258.251 550.696 257.764C550.209 257.277 549.549 257.002 548.86 257V257Z" fill="white"/>
<path id="Key_x" d="M552.86 293H530.6C529.911 293 529.249 293.274 528.762 293.762C528.274 294.25 528 294.911 528 295.6V317.86C527.999 318.202 528.066 318.54 528.197 318.856C528.327 319.172 528.518 319.459 528.76 319.7C529.002 319.942 529.288 320.133 529.604 320.264C529.92 320.394 530.258 320.461 530.6 320.46H552.86C553.549 320.46 554.211 320.186 554.698 319.698C555.186 319.211 555.46 318.55 555.46 317.86V295.6C555.458 294.911 555.183 294.251 554.696 293.764C554.209 293.277 553.549 293.002 552.86 293V293Z" fill="#E6E6E6"/>
<path id="Vector_13" d="M559.86 332H537.6C537.258 331.999 536.92 332.066 536.604 332.197C536.288 332.327 536.002 332.518 535.76 332.76C535.518 333.002 535.327 333.288 535.197 333.604C535.066 333.92 534.999 334.258 535 334.6V356.86C534.999 357.202 535.066 357.54 535.197 357.856C535.327 358.172 535.518 358.458 535.76 358.7C536.002 358.942 536.288 359.133 536.604 359.264C536.92 359.394 537.258 359.461 537.6 359.46H559.86C560.549 359.46 561.211 359.186 561.698 358.698C562.186 358.211 562.46 357.549 562.46 356.86V334.6C562.46 333.911 562.186 333.249 561.698 332.762C561.211 332.274 560.549 332 559.86 332V332Z" fill="#6C63FF"/>
<path id="Vector_14" d="M614.138 180.05H591.868C591.18 180.052 590.521 180.327 590.036 180.814C589.55 181.302 589.278 181.962 589.278 182.649V204.919C589.278 205.606 589.551 206.265 590.037 206.751C590.522 207.236 591.181 207.509 591.868 207.51H614.138C614.826 207.51 615.486 207.237 615.973 206.752C616.461 206.266 616.736 205.607 616.738 204.919V182.649C616.736 181.961 616.461 181.3 615.974 180.813C615.487 180.326 614.827 180.052 614.138 180.05Z" fill="white"/>
<path id="Key_y" d="M658.86 216H636.59C635.902 216.002 635.243 216.277 634.758 216.765C634.272 217.252 634 217.912 634 218.6V240.87C634 241.557 634.273 242.216 634.759 242.701C635.244 243.187 635.903 243.46 636.59 243.46H658.86C659.548 243.46 660.208 243.188 660.695 242.702C661.183 242.217 661.458 241.558 661.46 240.87V218.6C661.458 217.911 661.184 217.251 660.696 216.764C660.209 216.277 659.549 216.002 658.86 216V216Z" fill="white"/>
<path id="Key_g" d="M622.86 256H600.59C599.902 256.002 599.243 256.277 598.758 256.765C598.272 257.252 598 257.912 598 258.6V280.86C597.999 281.201 598.065 281.539 598.195 281.854C598.325 282.169 598.515 282.456 598.756 282.697C598.996 282.939 599.282 283.13 599.597 283.261C599.912 283.392 600.249 283.46 600.59 283.46H622.86C623.55 283.46 624.211 283.186 624.698 282.698C625.186 282.211 625.46 281.55 625.46 280.86V258.6C625.458 257.911 625.184 257.251 624.696 256.764C624.209 256.277 623.549 256.002 622.86 256V256Z" fill="white"/>
<path id="Key_f" d="M585.86 256H563.59C562.902 256.002 562.243 256.277 561.758 256.765C561.272 257.252 561 257.912 561 258.6V280.86C560.999 281.201 561.065 281.539 561.195 281.854C561.325 282.169 561.515 282.456 561.756 282.697C561.996 282.939 562.282 283.13 562.597 283.261C562.912 283.392 563.249 283.46 563.59 283.46H585.86C586.55 283.46 587.211 283.186 587.698 282.698C588.186 282.211 588.46 281.55 588.46 280.86V258.6C588.458 257.911 588.184 257.251 587.696 256.764C587.209 256.277 586.549 256.002 585.86 256V256Z" fill="white"/>
<path id="Key_h" d="M660.86 256H638.59C637.902 256.002 637.243 256.277 636.758 256.765C636.272 257.252 636 257.912 636 258.6V280.86C635.999 281.201 636.065 281.539 636.195 281.854C636.325 282.169 636.515 282.456 636.756 282.697C636.996 282.939 637.282 283.13 637.597 283.261C637.912 283.392 638.249 283.46 638.59 283.46H660.86C661.55 283.46 662.211 283.186 662.698 282.698C663.186 282.211 663.46 281.55 663.46 280.86V258.6C663.458 257.911 663.184 257.251 662.696 256.764C662.209 256.277 661.549 256.002 660.86 256V256Z" fill="white"/>
<path id="Key_v" d="M632.86 293H610.59C609.902 293.002 609.243 293.277 608.758 293.765C608.272 294.252 608 294.912 608 295.6V317.86C607.999 318.201 608.065 318.539 608.195 318.854C608.325 319.169 608.515 319.456 608.756 319.697C608.996 319.939 609.282 320.13 609.597 320.261C609.912 320.392 610.249 320.46 610.59 320.46H632.86C633.55 320.46 634.211 320.186 634.698 319.698C635.186 319.211 635.46 318.55 635.46 317.86V295.6C635.458 294.911 635.184 294.251 634.696 293.764C634.209 293.277 633.549 293.002 632.86 293V293Z" fill="#6C63FF"/>
<path id="Key_c" d="M591.86 294H569.59C568.902 294.002 568.243 294.277 567.758 294.765C567.272 295.252 567 295.912 567 296.6V318.86C566.999 319.201 567.065 319.539 567.195 319.854C567.325 320.169 567.515 320.456 567.756 320.697C567.996 320.939 568.282 321.13 568.597 321.261C568.912 321.392 569.249 321.46 569.59 321.46H591.86C592.55 321.46 593.211 321.186 593.698 320.698C594.186 320.211 594.46 319.55 594.46 318.86V296.6C594.458 295.911 594.184 295.251 593.696 294.764C593.209 294.277 592.549 294.002 591.86 294V294Z" fill="#6C63FF"/>
<path id="Vector_15" d="M660.898 180.05H638.628C637.94 180.052 637.281 180.327 636.796 180.814C636.31 181.302 636.038 181.962 636.038 182.649V204.919C636.038 205.606 636.311 206.265 636.797 206.751C637.282 207.236 637.941 207.509 638.628 207.51H660.898C661.586 207.51 662.246 207.237 662.733 206.752C663.221 206.266 663.496 205.607 663.498 204.919V182.649C663.496 181.961 663.221 181.3 662.734 180.813C662.247 180.326 661.587 180.052 660.898 180.05V180.05Z" fill="white"/>
<path id="Key_u" d="M697.86 218H675.59C674.902 218.002 674.243 218.277 673.758 218.765C673.272 219.252 673 219.912 673 220.6V242.87C673 243.557 673.273 244.216 673.759 244.701C674.244 245.187 674.903 245.46 675.59 245.46H697.86C698.548 245.46 699.208 245.188 699.695 244.702C700.183 244.217 700.458 243.558 700.46 242.87V220.6C700.458 219.911 700.183 219.251 699.696 218.764C699.209 218.277 698.549 218.002 697.86 218V218Z" fill="white"/>
<path id="Key_j" d="M697.86 257H675.59C674.902 257.002 674.243 257.277 673.758 257.765C673.272 258.252 673 258.912 673 259.6V281.86C672.999 282.201 673.065 282.539 673.195 282.854C673.325 283.169 673.515 283.456 673.756 283.697C673.996 283.939 674.282 284.13 674.597 284.261C674.912 284.392 675.249 284.46 675.59 284.46H697.86C698.55 284.46 699.211 284.186 699.698 283.698C700.186 283.211 700.46 282.55 700.46 281.86V259.6C700.458 258.911 700.183 258.251 699.696 257.764C699.209 257.277 698.549 257.002 697.86 257V257Z" fill="#6C63FF"/>
<path id="Key_b" d="M670.86 294H648.59C647.902 294.002 647.243 294.277 646.758 294.765C646.272 295.252 646 295.912 646 296.6V318.86C645.999 319.201 646.065 319.539 646.195 319.854C646.325 320.169 646.515 320.456 646.756 320.697C646.996 320.939 647.282 321.13 647.597 321.261C647.912 321.392 648.249 321.46 648.59 321.46H670.86C671.55 321.46 672.211 321.186 672.698 320.698C673.186 320.211 673.46 319.55 673.46 318.86V296.6C673.458 295.911 673.183 295.251 672.696 294.764C672.209 294.277 671.549 294.002 670.86 294V294Z" fill="#E6E6E6"/>
<path id="Vector_16" d="M707.658 180.05H685.388C684.7 180.052 684.041 180.327 683.556 180.814C683.07 181.302 682.798 181.962 682.798 182.649V204.919C682.798 205.606 683.071 206.265 683.557 206.751C684.042 207.236 684.701 207.509 685.388 207.51H707.658C708.346 207.51 709.006 207.237 709.493 206.752C709.981 206.266 710.256 205.607 710.258 204.919V182.649C710.256 181.961 709.981 181.3 709.494 180.813C709.007 180.326 708.347 180.052 707.658 180.05V180.05Z" fill="#6C63FF"/>
<path id="Key_i" d="M736.86 218H714.59C713.902 218.002 713.243 218.277 712.758 218.765C712.272 219.252 712 219.912 712 220.6V242.87C712 243.557 712.273 244.216 712.759 244.701C713.244 245.187 713.903 245.46 714.59 245.46H736.86C737.548 245.46 738.208 245.188 738.695 244.702C739.183 244.217 739.458 243.558 739.46 242.87V220.6C739.458 219.911 739.183 219.251 738.696 218.764C738.209 218.277 737.549 218.002 736.86 218Z" fill="#6C63FF"/>
<path id="Key_k" d="M734.86 257H712.59C711.902 257.002 711.243 257.277 710.758 257.765C710.272 258.252 710 258.912 710 259.6V281.86C709.999 282.201 710.065 282.539 710.195 282.854C710.325 283.169 710.515 283.456 710.756 283.697C710.996 283.939 711.282 284.13 711.597 284.261C711.912 284.392 712.249 284.46 712.59 284.46H734.86C735.549 284.46 736.211 284.186 736.698 283.698C737.186 283.211 737.46 282.55 737.46 281.86V259.6C737.458 258.911 737.183 258.251 736.696 257.764C736.209 257.277 735.549 257.002 734.86 257Z" fill="#E6E6E6"/>
<path id="Key_n" d="M706.86 294H684.59C683.902 294.002 683.243 294.277 682.758 294.765C682.272 295.252 682 295.912 682 296.6V318.86C681.999 319.201 682.065 319.539 682.195 319.854C682.325 320.169 682.515 320.456 682.756 320.697C682.996 320.939 683.282 321.13 683.597 321.261C683.912 321.392 684.249 321.46 684.59 321.46H706.86C707.549 321.46 708.211 321.186 708.698 320.698C709.186 320.211 709.46 319.55 709.46 318.86V296.6C709.458 295.911 709.183 295.251 708.696 294.764C708.209 294.277 707.549 294.002 706.86 294Z" fill="white"/>
<path id="Key_Spacebar" d="M691.785 332H587.167C583.936 332.002 580.84 332.273 578.56 332.752C576.279 333.231 574.999 333.88 575 334.557V356.444C574.996 356.779 575.307 357.111 575.916 357.421C576.525 357.731 577.421 358.012 578.551 358.25C579.681 358.487 581.024 358.676 582.502 358.804C583.981 358.933 585.566 359 587.167 359H691.785C695.024 359 698.13 358.73 700.421 358.251C702.711 357.772 703.998 357.121 704 356.444V334.557C703.99 333.879 702.7 333.23 700.412 332.751C698.123 332.272 695.022 332.002 691.785 332V332Z" fill="white"/>
<path id="Vector_17" d="M739.86 332H717.59C717.249 332 716.912 332.068 716.597 332.199C716.282 332.33 715.996 332.521 715.756 332.763C715.515 333.004 715.325 333.291 715.195 333.606C715.065 333.921 714.999 334.259 715 334.6V356.86C714.999 357.201 715.065 357.539 715.195 357.854C715.325 358.169 715.515 358.456 715.756 358.697C715.996 358.939 716.282 359.13 716.597 359.261C716.912 359.392 717.249 359.46 717.59 359.46H739.86C740.549 359.46 741.211 359.186 741.698 358.698C742.186 358.211 742.46 357.549 742.46 356.86V334.6C742.46 333.911 742.186 333.249 741.698 332.762C741.211 332.274 740.549 332 739.86 332Z" fill="#6C63FF"/>
<path id="Vector_18" d="M754.418 180.05H732.148C731.46 180.052 730.801 180.327 730.316 180.814C729.83 181.302 729.558 181.962 729.558 182.649V204.919C729.558 205.606 729.831 206.265 730.317 206.751C730.802 207.236 731.461 207.509 732.148 207.51H754.418C755.106 207.51 755.766 207.237 756.253 206.752C756.741 206.266 757.016 205.607 757.018 204.919V182.649C757.016 181.961 756.741 181.3 756.254 180.813C755.767 180.326 755.107 180.052 754.418 180.05Z" fill="#6C63FF"/>
<path id="Key_o" d="M773.86 218H751.59C750.902 218.002 750.243 218.277 749.758 218.765C749.272 219.252 749 219.912 749 220.6V242.87C749 243.557 749.273 244.216 749.759 244.701C750.244 245.187 750.903 245.46 751.59 245.46H773.86C774.548 245.46 775.208 245.188 775.695 244.702C776.183 244.217 776.458 243.558 776.46 242.87V220.6C776.458 219.911 776.183 219.251 775.696 218.764C775.209 218.277 774.549 218.002 773.86 218V218Z" fill="#6C63FF"/>
<path id="Key_l" d="M769.86 256H747.59C746.902 256.002 746.243 256.277 745.758 256.765C745.272 257.252 745 257.912 745 258.6V280.86C744.999 281.201 745.065 281.539 745.195 281.854C745.325 282.169 745.515 282.456 745.756 282.697C745.996 282.939 746.282 283.13 746.597 283.261C746.912 283.392 747.249 283.46 747.59 283.46H769.86C770.549 283.46 771.211 283.186 771.698 282.698C772.186 282.211 772.46 281.55 772.46 280.86V258.6C772.458 257.911 772.183 257.251 771.696 256.764C771.209 256.277 770.549 256.002 769.86 256Z" fill="#E6E6E6"/>
<path id="Key_m" d="M742.86 295H720.59C719.902 295.002 719.243 295.277 718.758 295.765C718.272 296.252 718 296.912 718 297.6V319.86C717.999 320.201 718.065 320.539 718.195 320.854C718.325 321.169 718.515 321.456 718.756 321.697C718.996 321.939 719.282 322.13 719.597 322.261C719.912 322.392 720.249 322.46 720.59 322.46H742.86C743.549 322.46 744.211 322.186 744.698 321.698C745.186 321.211 745.46 320.55 745.46 319.86V297.6C745.458 296.911 745.183 296.251 744.696 295.764C744.209 295.277 743.549 295.002 742.86 295V295Z" fill="#6C63FF"/>
<path id="Vector_19" d="M779.86 331H757.59C757.249 331 756.912 331.068 756.597 331.199C756.282 331.33 755.996 331.521 755.756 331.763C755.515 332.004 755.325 332.291 755.195 332.606C755.065 332.921 754.999 333.259 755 333.6V355.86C754.999 356.201 755.065 356.539 755.195 356.854C755.325 357.169 755.515 357.456 755.756 357.697C755.996 357.939 756.282 358.13 756.597 358.261C756.912 358.392 757.249 358.46 757.59 358.46H779.86C780.549 358.46 781.211 358.186 781.698 357.698C782.186 357.211 782.46 356.549 782.46 355.86V333.6C782.46 332.911 782.186 332.249 781.698 331.762C781.211 331.274 780.549 331 779.86 331V331Z" fill="#6C63FF"/>
<path id="Vector_20" d="M793.444 181H771.547C770.87 181.002 770.222 181.242 769.745 181.668C769.268 182.094 769 182.671 769 183.272V202.736C769 203.337 769.268 203.912 769.746 204.337C770.224 204.761 770.871 205 771.547 205H793.444C794.12 205 794.769 204.762 795.248 204.338C795.727 203.913 795.998 203.337 796 202.736V183.272C795.998 182.67 795.728 182.093 795.249 181.667C794.77 181.242 794.121 181.002 793.444 181V181Z" fill="#E6E6E6"/>
<path id="Key_p" d="M812.86 218H790.59C789.902 218.002 789.243 218.277 788.758 218.765C788.272 219.252 788 219.912 788 220.6V242.87C788 243.557 788.273 244.216 788.759 244.701C789.244 245.187 789.903 245.46 790.59 245.46H812.86C813.548 245.46 814.208 245.188 814.695 244.702C815.183 244.217 815.458 243.558 815.46 242.87V220.6C815.458 219.911 815.183 219.251 814.696 218.764C814.209 218.277 813.549 218.002 812.86 218V218Z" fill="#6C63FF"/>
<path id="Vector_21" d="M800.012 257H782.981C782.455 257.002 781.951 257.253 781.579 257.696C781.208 258.14 781 258.741 781 259.367V279.633C780.999 279.943 781.05 280.251 781.149 280.538C781.248 280.825 781.394 281.086 781.578 281.305C781.762 281.525 781.981 281.7 782.221 281.819C782.462 281.938 782.72 282 782.981 282H800.012C800.539 282 801.045 281.75 801.417 281.306C801.79 280.863 802 280.261 802 279.633V259.367C801.998 258.74 801.788 258.139 801.416 257.695C801.043 257.252 800.539 257.002 800.012 257V257Z" fill="#6C63FF"/>
<path id="Key_Comma" d="M778.86 294H756.59C755.902 294.002 755.243 294.277 754.758 294.765C754.272 295.252 754 295.912 754 296.6V318.86C753.999 319.201 754.065 319.539 754.195 319.854C754.325 320.169 754.515 320.456 754.756 320.697C754.996 320.939 755.282 321.13 755.597 321.261C755.912 321.392 756.249 321.46 756.59 321.46H778.86C779.549 321.46 780.211 321.186 780.698 320.698C781.186 320.211 781.46 319.55 781.46 318.86V296.6C781.458 295.911 781.183 295.251 780.696 294.764C780.209 294.277 779.549 294.002 778.86 294Z" fill="#6C63FF"/>
<path id="Key_Backspace" d="M847.023 180H812.962C811.909 180.002 810.902 180.283 810.159 180.78C809.417 181.277 809 181.95 809 182.651V205.359C809 206.059 809.418 206.731 810.161 207.226C810.903 207.722 811.911 208 812.962 208H847.023C848.075 208 849.085 207.722 849.83 207.227C850.576 206.732 850.996 206.06 851 205.359V182.651C850.997 181.949 850.577 181.275 849.832 180.779C849.087 180.282 848.077 180.002 847.023 180V180Z" fill="#E6E6E6"/>
<path id="Vector_22" d="M847.938 218H825.668C824.98 218.002 824.321 218.277 823.836 218.764C823.35 219.252 823.078 219.912 823.078 220.6V242.87C823.078 243.556 823.351 244.215 823.837 244.701C824.322 245.187 824.981 245.459 825.668 245.46H847.938C848.626 245.46 849.286 245.187 849.773 244.702C850.261 244.216 850.536 243.557 850.538 242.87V220.6C850.536 219.911 850.261 219.25 849.774 218.763C849.287 218.276 848.627 218.002 847.938 218V218Z" fill="#E6E6E6"/>
<path id="Vector_23" d="M847.023 256H812.962C811.909 256.002 810.902 256.273 810.159 256.752C809.416 257.231 809 257.88 809 258.557V280.444C808.999 280.779 809.1 281.111 809.298 281.421C809.497 281.731 809.788 282.012 810.156 282.25C810.524 282.487 810.961 282.676 811.443 282.805C811.924 282.933 812.44 283 812.962 283H847.023C848.078 283 849.089 282.73 849.835 282.251C850.58 281.772 850.999 281.122 851 280.444V258.557C850.997 257.879 850.577 257.23 849.832 256.751C849.087 256.272 848.077 256.002 847.023 256V256Z" fill="#6C63FF"/>
<path id="Key_Shift" d="M845.224 294H795.754C794.226 294.002 792.762 294.273 791.683 294.752C790.605 295.231 790 295.88 790 296.557V318.444C789.998 318.779 790.145 319.111 790.433 319.421C790.721 319.731 791.145 320.012 791.679 320.25C792.214 320.487 792.849 320.676 793.548 320.804C794.247 320.933 794.996 321 795.754 321H845.224C846.756 321 848.224 320.73 849.307 320.251C850.39 319.772 850.999 319.121 851 318.444V296.557C850.995 295.879 850.385 295.23 849.303 294.751C848.221 294.272 846.755 294.002 845.224 294V294Z" fill="#E6E6E6"/>
<path id="Vector_24" d="M849.674 345H838.321C838.147 345 837.975 345.032 837.814 345.094C837.654 345.156 837.508 345.247 837.385 345.361C837.263 345.475 837.166 345.611 837.099 345.76C837.033 345.91 837 346.07 837 346.231V356.769C837 356.93 837.033 357.09 837.099 357.24C837.166 357.389 837.263 357.524 837.385 357.639C837.508 357.753 837.654 357.844 837.814 357.906C837.975 357.968 838.147 358 838.321 358H849.674C850.026 358 850.363 357.87 850.612 357.639C850.86 357.408 851 357.095 851 356.769V346.231C851 345.904 850.86 345.591 850.612 345.361C850.363 345.13 850.026 345 849.674 345V345Z" fill="#E6E6E6"/>
<path id="Vector_25" d="M828.674 345H817.321C817.147 345 816.975 345.032 816.814 345.094C816.654 345.156 816.508 345.247 816.385 345.361C816.263 345.475 816.166 345.611 816.099 345.76C816.033 345.91 816 346.07 816 346.231V356.769C816 356.93 816.033 357.09 816.099 357.24C816.166 357.389 816.263 357.524 816.385 357.639C816.508 357.753 816.654 357.844 816.814 357.906C816.975 357.968 817.147 358 817.321 358H828.674C829.026 358 829.363 357.87 829.612 357.639C829.86 357.408 830 357.095 830 356.769V346.231C830 345.904 829.86 345.591 829.612 345.361C829.363 345.13 829.026 345 828.674 345V345Z" fill="#E6E6E6"/>
<path id="Vector_26" d="M828.674 327H817.321C817.147 327 816.975 327.032 816.814 327.094C816.654 327.156 816.508 327.247 816.385 327.361C816.263 327.475 816.166 327.611 816.099 327.76C816.033 327.91 816 328.07 816 328.231V338.769C816 338.93 816.033 339.09 816.099 339.24C816.166 339.389 816.263 339.524 816.385 339.639C816.508 339.753 816.654 339.844 816.814 339.906C816.975 339.968 817.147 340 817.321 340H828.674C829.026 340 829.363 339.87 829.612 339.639C829.86 339.408 830 339.095 830 338.769V328.231C830 327.904 829.86 327.591 829.612 327.361C829.363 327.13 829.026 327 828.674 327V327Z" fill="#E6E6E6"/>
<path id="Vector_27" d="M807.674 346H796.321C796.147 346 795.975 346.032 795.814 346.094C795.654 346.156 795.508 346.247 795.385 346.361C795.263 346.475 795.166 346.611 795.099 346.76C795.033 346.91 795 347.07 795 347.231V357.769C795 357.93 795.033 358.09 795.099 358.24C795.166 358.389 795.263 358.524 795.385 358.639C795.508 358.753 795.654 358.844 795.814 358.906C795.975 358.968 796.147 359 796.321 359H807.674C808.026 359 808.363 358.87 808.612 358.639C808.86 358.408 809 358.095 809 357.769V347.231C809 346.904 808.86 346.591 808.612 346.361C808.363 346.13 808.026 346 807.674 346V346Z" fill="#E6E6E6"/>
<path id="Vector_28" d="M336.095 660.051H335.475L336.005 659.981L336.095 660.051Z" fill="#2F2E41"/>
<path id="Pant" d="M419.578 740.74C416.928 740.8 414.268 740.83 411.598 740.83C348.168 740.83 268.388 706.95 195.988 660.05C189.998 656.17 184.061 652.2 178.178 648.14L183.338 616.74L339.548 596L417.948 655.95L419.578 740.74Z" fill="#2F2E41"/>
<path id="Shirt" d="M459.548 345.11L459.328 346.27L456.858 359.31L439.788 449.51L438.778 454.82L436.658 466.05L433.758 481.37L427.328 515.32L425.488 525.05L424.798 528.7L424.558 529.98L422.648 540.05L422.068 543.09L417.408 577.62L413.338 607.71L426.958 621.329L418.838 629.449L413.508 659.98L413.518 660.05H195.988C187.188 654.35 178.515 648.473 169.968 642.419L171.758 629.02C171.758 629.02 177.918 605.09 175.328 602.23C172.748 599.37 167.088 594.26 167.088 594.26L174.218 577.62L175.208 575.31L173.548 540.88L173.508 540.05L172.958 528.699L172.888 527.239L172.778 525.05L170.668 481.369L170.628 480.649L169.988 467.409L169.388 454.82L169.128 449.509L166.558 396.379L164.818 360.3L163.298 328.89L169.408 326.82L234.758 304.609L261.828 269.419L318.168 269.839L345.748 270.05L391.768 312.729L402.238 317.729L402.318 317.769L409.828 321.359L428.868 330.449L448.998 340.07L459.328 345L459.548 345.11Z" fill="#CACACA"/>
<g id="Left Hand">
<path id="Vector_29" d="M269.109 557.551C264.98 559.15 260.551 559.825 256.134 559.528C251.716 559.23 247.417 557.968 243.54 555.829C239.663 553.691 236.303 550.728 233.694 547.15C231.086 543.572 229.294 539.466 228.445 535.121L121.886 520.003L158.929 478.101L254.44 498.881C261.834 497.938 269.318 499.74 275.473 503.946C281.628 508.151 286.026 514.469 287.834 521.701C289.642 528.932 288.734 536.576 285.283 543.184C281.832 549.791 276.077 554.903 269.109 557.551V557.551Z" fill="#FFB6B6"/>
<path id="Vector_30" d="M221.598 481.37C219.624 478.867 216.83 477.142 213.708 476.5L169.988 467.409L165.498 466.48C162.889 465.935 160.424 464.846 158.264 463.283C156.105 461.72 154.3 459.718 152.968 457.409C151.586 454.986 150.75 452.29 150.518 449.51C150.31 446.982 150.612 444.438 151.408 442.03L166.558 396.38L176.388 366.76C177.579 363.187 178.282 359.47 178.478 355.71C179.026 345.302 175.806 335.046 169.408 326.82C163.783 319.589 155.982 314.359 147.156 311.903C138.331 309.446 128.949 309.894 120.398 313.18C120.148 313.27 119.888 313.37 119.638 313.47C113.505 315.918 108.026 319.76 103.633 324.691C99.2408 329.621 96.055 335.506 94.3279 341.88L83.648 380.73L61.6179 460.82C59.4126 468.844 58.9671 477.25 60.3119 485.462C61.6566 493.675 64.7599 501.5 69.4092 508.402C74.0586 515.304 80.1444 521.12 87.2499 525.451C94.3554 529.783 102.313 532.528 110.578 533.5L173.548 540.88L202.688 544.3C206.058 544.705 209.456 543.825 212.206 541.837C214.956 539.848 216.857 536.896 217.528 533.57C217.575 533.388 217.612 533.205 217.638 533.02L218.338 528.699L224.268 492.32L224.328 491.949C224.637 490.093 224.554 488.193 224.083 486.37C223.613 484.548 222.767 482.845 221.598 481.37Z" fill="#CACACA"/>
</g>
<g id="Right Hand">
<path id="Vector_31" d="M336.983 558.717C341.295 559.718 345.775 559.762 350.107 558.844C354.438 557.927 358.516 556.071 362.053 553.407C365.589 550.743 368.499 547.336 370.576 543.426C372.654 539.517 373.849 535.199 374.077 530.777L477.439 500.783L434.858 464.524L343.231 498.565C335.778 498.674 328.623 501.513 323.123 506.545C317.623 511.577 314.159 518.451 313.389 525.866C312.619 533.28 314.595 540.72 318.943 546.775C323.292 552.829 329.71 557.079 336.983 558.717V558.717Z" fill="#FFB6B6"/>
<path id="Vector_32" d="M528.758 433.69L479.598 320.55C475.577 311.261 468.396 303.697 459.328 299.2C456.525 297.82 453.581 296.747 450.548 296C450.078 295.88 449.608 295.77 449.138 295.679C442.706 294.276 436.034 294.399 429.658 296.04C423.83 297.537 418.383 300.246 413.672 303.99C408.961 307.734 405.092 312.43 402.318 317.77C402.288 317.814 402.261 317.861 402.238 317.909C399.139 323.904 397.491 330.543 397.427 337.29C397.363 344.038 398.884 350.707 401.868 356.76L402.478 357.98L437.218 427.75C438.404 430.135 439.073 432.745 439.179 435.407C439.286 438.07 438.829 440.724 437.837 443.198C436.846 445.671 435.342 447.906 433.426 449.757C431.51 451.609 429.224 453.034 426.718 453.939L424.278 454.82L380.398 470.669C377.105 471.844 374.397 474.251 372.843 477.383C371.29 480.515 371.012 484.127 372.068 487.46L372.178 487.81L384.478 527.169C384.538 527.35 384.598 527.53 384.668 527.709C384.776 528.049 384.91 528.38 385.068 528.699C386.375 531.631 388.686 534 391.584 535.381C394.482 536.761 397.778 537.062 400.878 536.229L424.558 529.979L429.388 528.699L490.538 512.55C498.584 510.423 506.076 506.584 512.5 501.293C518.924 496.003 524.129 489.386 527.759 481.897C531.389 474.408 533.357 466.223 533.53 457.903C533.702 449.582 532.074 441.322 528.758 433.689L528.758 433.69Z" fill="#CACACA"/>
</g>
<path id="Vector_33" d="M668.028 631.44C664.198 635.45 660.265 639.363 656.228 643.18H560.018V631.44H668.028Z" fill="white"/>
<path id="Table" d="M44.898 528.7C59.0684 545.983 74.3509 562.325 90.648 577.62H542.618C546.972 577.626 551.147 579.36 554.225 582.44C557.303 585.52 559.034 589.695 559.038 594.05L559.688 708.58C587.493 695.805 613.531 679.493 637.158 660.05C643.718 654.66 650.075 649.036 656.228 643.18C660.258 639.36 664.191 635.446 668.028 631.44C696.792 601.475 720.084 566.702 736.848 528.7H44.898Z" fill="#3F3D56"/>
<g id="Monitor">
<path id="Vector_34" d="M458.648 255.95C458.173 255.072 457.469 254.34 456.612 253.829C455.755 253.319 454.776 253.049 453.778 253.05H125.938C124.468 253.053 123.06 253.64 122.021 254.68C120.983 255.72 120.399 257.13 120.398 258.6V454.82H459.328V258.6C459.333 257.672 459.099 256.76 458.648 255.95V255.95Z" fill="#3F3D56"/>
<path id="Vector_35" d="M120.101 449.507V473.721C120.101 474.725 120.299 475.719 120.683 476.646C121.067 477.574 121.63 478.416 122.34 479.126C123.05 479.836 123.892 480.399 124.82 480.783C125.747 481.167 126.741 481.365 127.745 481.365H252.842V529.151H251.18C251.049 529.151 250.92 529.177 250.8 529.227C250.679 529.277 250.57 529.35 250.478 529.442C250.385 529.534 250.312 529.644 250.262 529.764C250.213 529.885 250.187 530.014 250.187 530.144V533.468C250.187 533.599 250.212 533.728 250.262 533.848C250.312 533.969 250.385 534.078 250.478 534.17C250.57 534.263 250.679 534.336 250.8 534.386C250.92 534.435 251.049 534.461 251.18 534.461H328.838C328.969 534.461 329.098 534.435 329.218 534.386C329.339 534.336 329.448 534.263 329.54 534.17C329.633 534.078 329.706 533.969 329.756 533.848C329.806 533.728 329.831 533.599 329.831 533.468V530.144C329.831 530.014 329.806 529.885 329.756 529.764C329.706 529.644 329.633 529.534 329.54 529.442C329.448 529.35 329.339 529.277 329.218 529.227C329.098 529.177 328.969 529.151 328.838 529.151H327.176V481.365H452.273C453.277 481.365 454.271 481.167 455.198 480.783C456.126 480.399 456.968 479.836 457.678 479.126C458.388 478.416 458.951 477.574 459.335 476.646C459.719 475.719 459.917 474.725 459.917 473.721V449.507H120.101Z" fill="#3F3D56"/>
</g>
<path id="Monitor_Logo" d="M285.903 380.01C303.193 380.01 317.209 365.994 317.209 348.704C317.209 331.414 303.193 317.397 285.903 317.397C268.613 317.397 254.597 331.414 254.597 348.704C254.597 365.994 268.613 380.01 285.903 380.01Z" fill="#6C63FF"/>
<g id="Head">
<path id="ab6171fa-7d69-4734-b81c-8dff60f9761b" d="M282.814 245.055C320.548 245.055 351.136 214.466 351.136 176.733C351.136 139 320.548 108.411 282.814 108.411C245.081 108.411 214.493 139 214.493 176.733C214.493 214.466 245.081 245.055 282.814 245.055Z" fill="#FFB6B6"/>
<path id="bf427902-b9bf-4946-b5d7-5c1c7e04535e" d="M342.646 126.64C342.646 126.64 360.515 92.4794 321.202 89.3739C321.202 89.3739 287.687 58.9716 253.526 83.8159C253.526 83.8159 234.893 83.8159 224.704 104.902C224.704 104.902 210.049 99.3435 206.828 114.218C206.828 114.218 196.105 145.274 206.828 173.223C217.552 201.173 221.114 204.279 221.114 204.279C221.114 204.279 203.493 145.68 246.384 142.575C289.274 139.469 337.27 112.665 340.845 146.826C344.419 180.987 349.798 189.404 349.798 189.404C349.798 189.404 383.748 140.615 342.646 126.64Z" fill="#2F2E41"/>
<path id="Vector_36" d="M348.628 148.69C347.71 149.136 346.911 149.794 346.298 150.61C345.772 151.296 345.387 152.08 345.166 152.916C344.944 153.751 344.891 154.623 345.008 155.48L349.558 189.02C349.745 190.387 350.358 191.66 351.309 192.66C352.26 193.659 353.502 194.334 354.858 194.59L348.628 148.69Z" fill="white"/>
<path id="Vector_37" d="M373.998 175.77L372.028 161.21C371.542 157.533 369.771 154.146 367.028 151.65L371.558 185.02C371.626 185.555 371.764 186.08 371.968 186.58C373.842 183.307 374.558 179.499 373.998 175.77V175.77Z" fill="#3F3D56"/>
<path id="Vector_38" d="M358.428 186.26C359.796 186.075 360.484 182.819 359.965 178.988C359.445 175.157 357.915 172.202 356.546 172.387C355.178 172.573 354.49 175.829 355.01 179.66C355.53 183.491 357.06 186.446 358.428 186.26Z" fill="#3F3D56"/>
<path id="Vector_39" d="M355.428 168.26C356.796 168.075 357.484 164.819 356.965 160.988C356.445 157.157 354.915 154.202 353.546 154.387C352.178 154.573 351.49 157.829 352.01 161.66C352.53 165.491 354.06 168.446 355.428 168.26Z" fill="#3F3D56"/>
<path id="Vector_40" d="M374.428 175.26C375.796 175.075 376.484 171.819 375.965 167.988C375.445 164.157 373.915 161.202 372.546 161.387C371.178 161.573 370.49 164.829 371.01 168.66C371.53 172.491 373.06 175.446 374.428 175.26Z" fill="#3F3D56"/>
<path id="Vector_41" d="M285.518 110.41C280.029 110.394 274.551 110.926 269.168 112C263.108 113.21 256.818 114.66 250.638 116.55C240.988 116.08 233.888 113.58 232.458 109.73C243.708 103.23 257.438 99.0395 273.168 96.9995C279.714 96.1287 286.331 95.9277 292.918 96.3996C293.615 96.8083 294.218 97.36 294.687 98.0184C295.156 98.6768 295.48 99.4269 295.638 100.22C296.108 103.7 292.138 107.4 285.518 110.41Z" fill="#3F3D56"/>
<g id="Headphone">
<path id="Vector_42" d="M365.668 173H360.668C360.668 135.2 323.258 110.43 285.518 110.41C280.029 110.394 274.551 110.926 269.168 112C263.108 113.21 256.818 114.66 250.638 116.55C226.268 124.02 203.668 138.46 203.668 173C203.663 179.707 204.516 186.388 206.208 192.88L201.368 194.14C199.573 187.236 198.665 180.132 198.668 173C198.668 142.82 211.058 122.09 232.458 109.73C243.708 103.23 257.438 99.0395 273.168 96.9995C279.714 96.1287 286.331 95.9277 292.918 96.3996C336.318 99.5195 365.668 132.8 365.668 173Z" fill="#6C63FF"/>
<path id="Vector_43" d="M373.998 175.77L372.028 161.21C371.542 157.533 369.771 154.146 367.028 151.65C365.267 150.022 363.159 148.816 360.864 148.123C358.568 147.43 356.145 147.268 353.778 147.65L350.648 148.08C349.792 148.192 348.966 148.474 348.219 148.908C347.473 149.343 346.819 149.921 346.298 150.61C345.772 151.296 345.387 152.08 345.166 152.916C344.944 153.751 344.891 154.623 345.008 155.48L349.558 189.02C349.745 190.387 350.358 191.66 351.309 192.66C352.26 193.659 353.502 194.334 354.858 194.59C355.26 194.67 355.668 194.71 356.078 194.71C356.372 194.709 356.666 194.689 356.958 194.65L360.458 194.18C362.592 193.896 364.645 193.18 366.492 192.074C368.339 190.968 369.941 189.497 371.198 187.75C371.468 187.37 371.728 186.98 371.968 186.58C373.842 183.307 374.558 179.499 373.998 175.77Z" fill="#6C63FF"/>
<path id="Vector_44" d="M221.678 207.7L213.978 175.69C213.703 174.535 213.094 173.487 212.226 172.677C211.357 171.868 210.269 171.333 209.098 171.14C208.767 171.088 208.433 171.061 208.098 171.06C207.626 171.061 207.156 171.118 206.698 171.23L203.718 171.95C199.881 172.878 196.569 175.29 194.509 178.657C192.448 182.024 191.808 186.071 192.728 189.91L196.178 204.27C196.966 207.65 198.842 210.679 201.518 212.89C201.952 213.24 202.406 213.564 202.878 213.86C204.554 214.91 206.424 215.614 208.377 215.93C210.33 216.246 212.326 216.168 214.248 215.7L217.218 214.98C218.003 214.796 218.742 214.452 219.388 213.97C220.348 213.269 221.079 212.299 221.487 211.183C221.895 210.066 221.961 208.854 221.678 207.7Z" fill="#6C63FF"/>
</g>
<path id="Vector_45" d="M205.536 201.744C206.878 201.421 207.233 198.112 206.329 194.353C205.424 190.594 203.603 187.809 202.26 188.132C200.918 188.455 200.563 191.764 201.467 195.523C202.372 199.282 204.193 202.067 205.536 201.744Z" fill="#3F3D56"/>
<path id="Vector_46" d="M195.536 204.744C196.878 204.421 197.233 201.112 196.329 197.353C195.424 193.594 193.603 190.809 192.26 191.132C190.918 191.455 190.563 194.764 191.467 198.523C192.372 202.282 194.193 205.067 195.536 204.744Z" fill="#3F3D56"/>
<path id="Vector_47" d="M222.168 207.58L214.468 175.57C214.168 174.32 213.506 173.187 212.565 172.312C211.624 171.436 210.446 170.858 209.178 170.65L219.688 214.37C220.726 213.609 221.515 212.559 221.957 211.35C222.398 210.142 222.472 208.83 222.168 207.58V207.58Z" fill="white"/>
<path id="Vector_48" d="M194.468 183.57C194.256 182.679 193.857 181.844 193.298 181.12C192.216 183.923 192.017 186.99 192.728 189.91L196.178 204.27C196.966 207.65 198.842 210.679 201.518 212.89L194.468 183.57Z" fill="#3F3D56"/>
</g>
</g>
<defs>
<clipPath id="clip0_1_36">
<rect width="850.538" height="740.83" fill="white"/>
</clipPath>
</defs>
</svg>
