<svg width="312" height="133" viewBox="0 0 312 133" fill="none" xmlns="http://www.w3.org/2000/svg">
<g id="cloud">
<path id="path" d="M125.582 0C102.625 0 79.8068 7.69091 63.5734 20.8983C53.3457 29.2193 45.8173 39.6663 41.6422 50.9279C31.607 52.4692 22.1293 56.4541 14.9026 62.3335C5.48332 69.9969 0 80.7649 0 91.6027C0 102.441 5.48332 113.212 14.9026 120.875C24.322 128.539 37.5614 133 50.8824 133H278.771C287.273 133 295.726 130.154 301.738 125.262C307.75 120.371 311.249 113.494 311.249 106.576C311.249 99.6584 307.75 92.7854 301.738 87.8939C295.763 83.0322 287.377 80.1941 278.927 80.1592C277.278 67.6255 270.299 55.5614 259.335 46.6409C246.709 36.3687 228.964 30.3874 211.108 30.3874C206.773 30.3874 202.447 30.7491 198.197 31.4299C195.087 27.6537 191.545 24.1149 187.591 20.8983C171.357 7.69091 148.54 0 125.582 0V0Z" fill="#EBEBEB"/>
</g>
</svg>
